<svg width="28" height="28" viewBox="0 0 28 28" fill="none" xmlns="http://www.w3.org/2000/svg">
<g clip-path="url(#clip0_546_1130)">
<path d="M25.1944 14.0002C25.1944 14.3483 25.0561 14.6821 24.81 14.9283C24.5638 15.1744 24.23 15.3127 23.8819 15.3127H7.80377L13.4388 20.9466C13.6853 21.1932 13.8239 21.5276 13.8239 21.8763C13.8239 22.225 13.6853 22.5594 13.4388 22.806C13.1922 23.0526 12.8578 23.1911 12.5091 23.1911C12.1604 23.1911 11.826 23.0526 11.5794 22.806L3.70439 14.931C3.58203 14.8091 3.48495 14.6642 3.4187 14.5046C3.35246 14.3451 3.31836 14.174 3.31836 14.0013C3.31836 13.8286 3.35246 13.6575 3.4187 13.498C3.48495 13.3384 3.58203 13.1935 3.70439 13.0716L11.5794 5.19661C11.7015 5.07452 11.8464 4.97768 12.0059 4.9116C12.1655 4.84553 12.3364 4.81152 12.5091 4.81152C12.6817 4.81152 12.8527 4.84553 13.0122 4.9116C13.1717 4.97768 13.3167 5.07452 13.4388 5.19661C13.5609 5.3187 13.6577 5.46364 13.7238 5.62316C13.7899 5.78267 13.8239 5.95364 13.8239 6.1263C13.8239 6.29896 13.7899 6.46993 13.7238 6.62944C13.6577 6.78896 13.5609 6.9339 13.4388 7.05599L7.80377 12.6877H23.8819C24.23 12.6877 24.5638 12.826 24.81 13.0721C25.0561 13.3183 25.1944 13.6521 25.1944 14.0002Z" fill="#1E1E1E"/>
</g>
<defs>
<clipPath id="clip0_546_1130">
<rect width="28" height="28" fill="white"/>
</clipPath>
</defs>
</svg>
