<svg width="28" height="28" viewBox="0 0 28 28" fill="none" xmlns="http://www.w3.org/2000/svg">
<path d="M23.0599 20.9465C23.3065 21.193 23.445 21.5275 23.445 21.8762C23.445 22.2249 23.3065 22.5593 23.0599 22.8059C22.8133 23.0524 22.4789 23.1909 22.1302 23.1909C21.7815 23.1909 21.4471 23.0524 21.2005 22.8059L14.2563 15.8594L7.30989 22.8037C7.06333 23.0502 6.72891 23.1888 6.38021 23.1888C6.03151 23.1888 5.69709 23.0502 5.45052 22.8037C5.20395 22.5571 5.06543 22.2227 5.06543 21.874C5.06543 21.5253 5.20395 21.1909 5.45052 20.9443L12.3969 14.0001L5.45271 7.05366C5.20614 6.80709 5.06762 6.47268 5.06762 6.12398C5.06762 5.77528 5.20614 5.44086 5.45271 5.19429C5.69927 4.94772 6.03369 4.8092 6.38239 4.8092C6.73109 4.8092 7.06551 4.94772 7.31208 5.19429L14.2563 12.1407L21.2027 5.19319C21.4493 4.94663 21.7837 4.80811 22.1324 4.80811C22.4811 4.80811 22.8155 4.94663 23.0621 5.19319C23.3086 5.43976 23.4472 5.77418 23.4472 6.12288C23.4472 6.47158 23.3086 6.806 23.0621 7.05257L16.1157 14.0001L23.0599 20.9465Z" fill="#1E1E1E"/>
</svg>
