<svg width="228" height="84" viewBox="0 0 228 84" fill="none" xmlns="http://www.w3.org/2000/svg">
    <path fill-rule="evenodd" clip-rule="evenodd"
        d="M4.35551 63.9986C2.40899 64.396 1.05396 65.5549 0.321092 67.449C0.049766 68.1502 0.00947708 68.9732 0.00181148 73.9595C-0.00674546 79.5994 -0.00193222 79.6786 0.417715 80.6074C0.963398 81.8155 2.38403 83.1251 3.63263 83.5712C4.97304 84.0501 7.32905 84.0109 8.73007 83.4865C10.2675 82.9109 11.3547 81.7567 11.8441 80.1806C12.312 78.6733 12.5773 73.6754 12.2243 73.0156C12.022 72.6374 11.912 72.6217 9.44672 72.6217C6.02144 72.6217 6.0275 72.6189 5.92607 74.2594C5.80592 76.2047 5.90503 76.3675 7.20854 76.3675H8.28262L8.28155 77.1256C8.27923 78.9452 7.57702 79.935 6.28867 79.935C5.18233 79.935 4.61739 79.5434 4.38368 78.6146C4.12501 77.5871 4.11681 70.1006 4.37334 69.1765C4.65946 68.1452 5.09605 67.8057 6.13643 67.8057C7.19731 67.8057 7.66402 68.2067 7.95674 69.3699L8.14945 70.1358L10.1325 70.0857L12.1154 70.0354L12.0527 69.1435C11.7769 65.2284 8.63149 63.126 4.35551 63.9986ZM150.875 63.8846C148.402 64.3029 146.844 65.7498 146.174 68.2516C145.809 69.6101 145.755 77.9094 146.1 79.3201C146.778 82.0866 148.439 83.5348 151.281 83.8388C154.393 84.1713 156.68 83.1331 157.829 80.8664C158.497 79.5479 158.598 78.4605 158.535 73.246L158.475 68.2516L157.974 67.1814C157.11 65.3315 155.924 64.4158 153.816 63.9688C152.48 63.6857 152.114 63.6752 150.875 63.8846ZM198.449 63.8973C195.996 64.4755 194.342 66.5726 194.365 69.0738C194.387 71.4054 195.549 72.9373 199.12 75.3449C200.199 76.072 201.262 76.9324 201.482 77.2571C202.381 78.5788 201.679 79.935 200.096 79.935C199.071 79.935 198.593 79.5877 198.257 78.5972L198.015 77.8837H196.072H194.129L194.074 78.8489C194.029 79.6369 194.12 80.0199 194.57 80.9347C195.734 83.2996 198.322 84.4001 201.47 83.8687C204.507 83.3563 206.162 81.3434 206.162 78.1634C206.162 75.7611 204.862 74.0343 201.471 71.9286C200.367 71.2435 199.332 70.5369 199.171 70.3587C198.329 69.4285 198.455 68.1578 199.422 67.8205C200.343 67.4993 201.527 68.001 201.527 68.7126C201.527 69.4209 201.992 69.5894 203.946 69.5894H205.805V68.6239C205.805 67.2424 204.948 65.6371 203.783 64.8358C202.294 63.8118 200.3 63.461 198.449 63.8973ZM24.132 64.3721C24.0386 66.1296 24.0868 82.9774 24.1861 83.2794C24.3112 83.6601 24.4101 83.6807 26.0989 83.6807C27.7056 83.6807 27.8987 83.6454 28.0732 83.319C28.1927 83.0955 28.2545 81.9092 28.2347 80.2177C28.2173 78.711 28.2581 77.3889 28.3255 77.2795C28.5098 76.9809 29.0484 77.0407 29.3691 77.3951C29.5252 77.568 30.2955 79.0529 31.0808 80.695L32.5084 83.6807H34.6571C36.4523 83.6807 36.8058 83.6365 36.8058 83.4121C36.8058 83.2642 36.0838 81.7126 35.2013 79.964C34.3189 78.2153 33.5969 76.6395 33.5969 76.4622C33.5969 76.2849 33.9217 75.7873 34.3187 75.3565C35.5614 74.0073 35.8101 73.2287 35.8182 70.6597C35.8244 68.7065 35.7748 68.3207 35.4188 67.548C34.8325 66.2758 34.2339 65.5618 33.2885 65.0074C32.0508 64.2818 30.6761 64.0678 27.2238 64.0637C24.4187 64.0603 24.1472 64.0874 24.132 64.3721ZM48.1186 64.2829C48.0717 64.4056 48.054 68.8001 48.0795 74.0487L48.1259 83.5916L49.8822 83.6427C51.0242 83.6761 51.7259 83.6217 51.8877 83.4872C52.2282 83.2045 52.2625 64.6136 51.923 64.274C51.6205 63.9713 48.2348 63.9791 48.1186 64.2829ZM64.8759 64.2829C64.829 64.4056 64.8114 68.8001 64.8369 74.0487L64.8832 83.5916H69.6965H74.5098V81.7187V79.8458L72.1032 79.8022C70.7795 79.7783 69.5161 79.7166 69.2954 79.6651L68.8943 79.5714V72.0297C68.8943 66.4018 68.8399 64.4336 68.6804 64.274C68.3779 63.9713 64.9922 63.9791 64.8759 64.2829ZM85.8551 64.2972C85.7028 64.4807 85.6606 67.0523 85.6946 74.0689L85.7408 83.5916L90.4649 83.6392C94.7482 83.6825 95.2099 83.6584 95.4119 83.3821C95.6417 83.0679 95.7276 80.5632 95.5266 80.0388C95.4346 79.799 95.0219 79.7566 92.7851 79.7566C90.8026 79.7566 90.1031 79.6975 89.9538 79.5177C89.8171 79.3527 89.7413 76.9367 89.7093 71.714L89.6627 64.1491L87.8622 64.0986C86.4906 64.0601 86.0125 64.1074 85.8551 64.2972ZM121.787 64.1732C121.718 64.2417 121.662 68.6173 121.662 73.8967V83.4956L122.063 83.596C122.284 83.6513 123.186 83.6729 124.069 83.644L125.673 83.5916L125.762 79.7566L125.851 75.9216L127.679 75.8708L129.506 75.8199V79.4054C129.506 81.5357 129.581 83.1306 129.691 83.3358C129.854 83.6413 130.078 83.6807 131.645 83.6807C133.213 83.6807 133.436 83.6413 133.6 83.3358C133.72 83.1108 133.784 79.8162 133.784 73.8703C133.784 67.9245 133.72 64.6298 133.6 64.4049C133.436 64.0995 133.213 64.0599 131.65 64.0599C130.432 64.0599 129.839 64.1293 129.739 64.2829C129.66 64.4056 129.555 66.1513 129.506 68.1625L129.417 71.8191L127.991 71.872C125.563 71.9621 125.777 72.3328 125.721 67.937L125.673 64.1491L123.792 64.0988C122.758 64.0712 121.855 64.1047 121.787 64.1732ZM170.521 64.3121C170.353 64.5141 170.317 66.3049 170.367 71.9432C170.439 80.1378 170.43 80.0737 171.674 81.7056C172.947 83.375 175.469 84.2658 177.782 83.8629C179.947 83.4856 181.397 82.4428 182.252 80.6484L182.72 79.6674V71.9083V64.1491L180.863 64.0979C179.699 64.0658 178.935 64.119 178.813 64.2404C178.683 64.3703 178.59 66.8106 178.53 71.6642L178.441 78.8943L177.859 79.4146C176.926 80.248 175.584 80.0366 174.996 78.9637C174.735 78.4882 174.686 77.5111 174.608 71.284L174.519 64.1491L172.629 64.0988C171.134 64.0589 170.694 64.1034 170.521 64.3121ZM217.756 64.4049C217.511 64.8626 217.502 82.5832 217.746 83.2261L217.921 83.6863L222.96 83.639L228 83.5916V81.7187V79.8458L225.063 79.7965C223.447 79.7694 222.053 79.6744 221.964 79.5852C221.835 79.4567 221.78 77.7576 221.842 75.8818C221.848 75.7222 222.557 75.6503 224.479 75.6143L227.109 75.5649L227.159 73.7366L227.21 71.9083H224.625C222.337 71.9083 222.024 71.8724 221.897 71.5961C221.818 71.4245 221.781 70.5414 221.814 69.634L221.875 67.9841H224.704C226.648 67.9841 227.573 67.9197 227.66 67.7784C227.814 67.5296 227.8 64.4918 227.644 64.2392C227.574 64.1263 225.757 64.0599 222.737 64.0599C218.177 64.0599 217.931 64.0769 217.756 64.4049ZM153.355 68.0842C154.228 68.6956 154.285 69.0645 154.285 74.0535V78.7138L153.773 79.2261C152.807 80.1936 151.314 80.1354 150.62 79.103C150.15 78.4024 149.961 75.6234 150.126 71.8314C150.269 68.527 150.647 67.8057 152.235 67.8057C152.633 67.8057 153.137 67.9309 153.355 68.0842ZM30.7556 68.3877C32.1258 69.3115 32.0353 72.3171 30.6177 72.9633C30.3841 73.0698 29.7556 73.1568 29.2209 73.1568H28.2488V70.5705V67.9841H29.2029C29.8987 67.9841 30.3191 68.0934 30.7556 68.3877Z"
        fill="#35302D" />
    <path fill-rule="evenodd" clip-rule="evenodd"
        d="M6.58929 0.1911C3.98441 0.330586 2.9902 0.699457 1.84803 1.95002C1.20715 2.65155 0.888226 3.20165 0.621356 4.06639C0.268025 5.21082 0.260716 5.65782 0.261786 26.0406C0.262321 38.5443 0.331311 47.2657 0.434708 47.8968C0.52919 48.4744 0.850967 49.4695 1.14975 50.1083C1.91345 51.7416 2.91783 52.5651 4.81675 53.1161C5.75303 53.3878 7.10395 53.4315 16.4383 53.4921L27.0005 53.5608L27.1791 53.0906C27.4556 52.363 27.4214 23.1692 27.1438 22.8915C26.8168 22.5644 17.314 22.5883 17.0414 22.917C16.9017 23.0854 16.8291 26.1948 16.7967 33.3963L16.7507 43.6361L14.19 43.6856C12.4538 43.7194 11.5498 43.6692 11.3822 43.5301C11.1749 43.3578 11.1355 40.6985 11.1378 26.9812C11.1396 17.0024 11.2065 10.5332 11.3095 10.3698C11.4532 10.1422 12.385 10.0946 17.5463 10.0509C22.799 10.0065 23.614 9.9637 23.614 9.73199C23.614 9.22024 22.0098 0.824496 21.8358 0.425658L21.6607 0.0243229L15.1054 0.0551811C11.5001 0.0721263 7.66782 0.133308 6.58929 0.1911ZM40.3848 0.356093C40.1209 0.849289 40.114 52.6977 40.3776 53.1907C40.5534 53.5192 40.8017 53.5357 45.6009 53.5357C49.2824 53.5357 50.6973 53.478 50.8536 53.3216C51.0139 53.1612 51.0676 51.0345 51.0676 44.849V36.5904H51.6614C52.4046 36.5904 52.4531 36.6833 53.3862 39.8903C53.7858 41.2637 54.4631 43.5112 54.8911 44.8847C55.3193 46.2581 56.0532 48.6661 56.5224 50.2358C56.9915 51.8055 57.45 53.1901 57.5413 53.3127C57.6675 53.4823 58.9799 53.5357 63.0334 53.5357H68.3597V53.0672C68.3597 52.8097 67.1965 49.0955 65.7748 44.8137C64.3531 40.5317 63.1899 36.9384 63.1899 36.8285C63.1899 36.6102 63.5917 36.412 64.034 36.412C64.6177 36.412 66.2135 35.497 66.7361 34.8627C67.8538 33.506 67.8249 33.9172 67.8249 19.3546C67.8249 5.74468 67.7923 5.02852 67.1044 3.49596C66.569 2.30373 65.0471 1.01303 63.6181 0.539459C62.4002 0.135805 62.2766 0.130989 51.4821 0.0648131C40.7094 -0.00118421 40.5739 0.00238321 40.3848 0.356093ZM86.9889 0.229093C85.3096 0.415134 83.612 1.16037 82.8712 2.03671C82.6044 2.35242 82.1382 3.13244 81.8351 3.77012L81.2843 4.92953L81.2324 25.8881C81.1968 40.2299 81.241 47.2128 81.372 48.0061C81.8038 50.6186 83.2016 52.3011 85.5628 53.0505C86.7791 53.4365 87.0242 53.4465 95.2785 53.4465C102.979 53.4465 103.819 53.4176 104.548 53.1288C106.499 52.3563 107.914 50.8556 108.603 48.8272C108.888 47.9883 108.917 46.3177 108.97 27.4935C109.012 12.5845 108.971 6.70878 108.82 5.7322C108.546 3.96472 107.934 2.71255 106.884 1.772C105.7 0.709981 104.697 0.38267 102.053 0.195381C99.2389 -0.00385977 88.8823 0.0191501 86.9889 0.229093ZM123.133 0.247287C123.035 0.370006 122.822 1.23279 122.659 2.16478C122.496 3.09677 122.246 4.4613 122.102 5.19708C121.958 5.93287 121.72 7.15364 121.573 7.90975C121.114 10.2691 120.512 10.0127 126.52 10.0158C129.388 10.0174 131.848 10.0903 131.986 10.1779C132.195 10.3099 132 11.1936 130.857 15.3034C130.097 18.0348 128.322 24.4433 126.913 29.5447C125.504 34.6462 123.463 42.0295 122.379 45.952C121.295 49.8748 120.448 53.1864 120.495 53.3113C120.565 53.4925 122.826 53.5291 131.685 53.4925L142.787 53.4465L142.995 52.733C143.109 52.3406 143.376 51.0563 143.589 49.879C143.802 48.7018 144.136 46.9104 144.332 45.898C144.528 44.8857 144.644 43.9427 144.59 43.8021C144.509 43.5895 143.7 43.5469 139.757 43.5469C135.87 43.5469 135.004 43.5023 134.926 43.298C134.873 43.1611 135.153 41.8167 135.547 40.3103C136.632 36.1632 139.588 25.0309 140.302 22.4099C140.648 21.1345 141.214 19.0075 141.558 17.6831C142.401 14.4355 142.887 12.592 144.122 7.96184C146 0.921886 146.102 0.504141 146.01 0.262805C145.879 -0.0771703 123.404 -0.0925102 123.133 0.247287ZM158.115 0.23926C158.066 0.36626 158.048 12.3899 158.073 26.9584L158.119 53.4465H162.932H167.745L167.834 42.655C167.923 31.8629 167.946 31.5223 168.444 33.5581C168.504 33.8034 169.152 36.3318 169.884 39.1768C170.616 42.0218 171.728 46.3455 172.355 48.7849C172.982 51.2243 173.606 53.2906 173.74 53.3767C173.875 53.4627 176.351 53.5137 179.243 53.4898L184.502 53.4465L184.548 26.8801C184.584 5.74469 184.547 0.284566 184.369 0.171657C183.987 -0.0714624 174 -0.00885416 173.753 0.238368C173.591 0.399794 173.539 2.94836 173.539 10.6137C173.539 16.2022 173.505 20.7411 173.464 20.6997C173.422 20.6583 172.412 16.7721 171.218 12.0635C168.335 0.693928 168.254 0.385168 168.109 0.23926C168.04 0.170052 165.783 0.0897851 163.093 0.0608889C159.216 0.0191501 158.184 0.0560729 158.115 0.23926ZM196.603 0.285101C196.489 0.581197 196.83 2.07809 198.23 7.42672C198.769 9.48691 199.968 14.1424 200.894 17.7722C201.819 21.4021 203.068 26.2583 203.668 28.5637C206.761 40.4448 206.595 39.3821 206.54 46.8822C206.51 50.9439 206.558 52.9197 206.693 53.1723C206.887 53.534 206.991 53.5399 212.365 53.4936L217.839 53.4465L217.945 46.3116C218.033 40.356 218.1 39.0146 218.35 38.1957C218.514 37.6562 219.164 35.208 219.793 32.7554C221.769 25.0509 223.454 18.497 224.908 12.867C228.029 0.777227 228.131 0.339148 227.88 0.179684C227.75 0.0972766 225.339 0.0286038 222.523 0.0269984C217.403 0.0243229 217.401 0.0245012 217.152 0.425658C217.014 0.646481 216.608 2.3922 216.25 4.30523C215.3 9.37257 214.281 14.6656 213.281 19.7251C212.797 22.1727 212.399 24.3399 212.396 24.5411C212.392 24.835 212.36 24.8545 212.237 24.6395C212.055 24.3245 211.867 23.3754 209.729 11.9752C207.743 1.38654 207.62 0.774195 207.397 0.357163C207.23 0.0437653 206.911 0.0243229 201.961 0.0243229C197.513 0.0243229 196.687 0.0644564 196.603 0.285101ZM56.8719 9.7311C57.2041 9.97404 57.22 10.306 57.2731 18.1004C57.3321 26.7693 57.2705 27.5859 56.5429 27.7658C56.3258 27.8197 55.0252 27.8406 53.6525 27.8124L51.1567 27.761L51.1104 18.8425C51.0849 13.9373 51.1023 9.82367 51.1492 9.70096C51.2794 9.36116 56.4028 9.38809 56.8719 9.7311ZM97.6956 9.7311C98.034 9.97868 98.0416 10.3607 98.0416 26.8613C98.0416 41.669 98.0088 43.759 97.7742 43.9074C97.4259 44.1278 92.5962 44.1278 92.2479 43.9074C92.0133 43.759 91.9805 41.669 91.9805 26.8613C91.9805 10.3607 91.9881 9.97868 92.3265 9.7311C92.8199 9.37008 97.2022 9.37008 97.6956 9.7311Z"
        fill="#D7322C" />
</svg>