<svg width="16" height="17" viewBox="0 0 16 17" fill="none" xmlns="http://www.w3.org/2000/svg">
    <path
        d="M8.45077 1.9898C8.31093 1.91914 8.15645 1.88232 7.99977 1.88232C7.8431 1.88232 7.68861 1.91914 7.54877 1.9898C7.30377 2.1128 7.17077 2.3488 7.08777 2.5178C6.99777 2.6998 6.90277 2.9448 6.79177 3.2298L5.86377 5.6198C5.84224 5.67818 5.81889 5.73587 5.79377 5.7928V5.7948H5.78977C5.75377 5.8008 5.70377 5.8048 5.60577 5.8148L3.10177 6.0288C2.82977 6.0528 2.59177 6.0728 2.40677 6.1058C2.23077 6.1378 1.98877 6.1958 1.80677 6.3798C1.70075 6.48739 1.62047 6.61761 1.57198 6.76067C1.52348 6.90373 1.50803 7.05591 1.52677 7.2058C1.55677 7.4618 1.71277 7.6558 1.83377 7.7888C1.95977 7.9278 2.13577 8.0888 2.33677 8.2738L4.32377 10.0968L4.44877 10.2148L4.45077 10.2168V10.2198C4.44477 10.2528 4.43477 10.2988 4.41477 10.3878L3.82277 13.0478C3.76439 13.289 3.71602 13.5326 3.67777 13.7778C3.65377 13.9618 3.63577 14.2228 3.76477 14.4578C3.83931 14.5934 3.94431 14.7099 4.07151 14.798C4.1987 14.8862 4.34462 14.9436 4.49777 14.9658C4.76277 15.0038 5.00177 14.8938 5.16477 14.8058C5.38075 14.6839 5.5916 14.5531 5.79677 14.4138L7.83277 13.0818C7.91877 13.0258 7.96277 12.9968 7.99677 12.9778L7.99977 12.9758L8.00277 12.9778C8.03577 12.9968 8.08077 13.0258 8.16677 13.0818L10.2028 14.4138C10.4488 14.5748 10.6608 14.7138 10.8348 14.8068C10.9978 14.8938 11.2358 15.0038 11.5018 14.9658C11.6549 14.9436 11.8008 14.8862 11.928 14.798C12.0552 14.7099 12.1602 14.5934 12.2348 14.4578C12.3648 14.2228 12.3448 13.9618 12.3218 13.7778C12.2835 13.5326 12.2352 13.289 12.1768 13.0478L11.5848 10.3878C11.5648 10.2978 11.5548 10.2528 11.5498 10.2198V10.2168L11.5508 10.2148L11.6758 10.0968L13.6628 8.2738C13.8638 8.0888 14.0398 7.9278 14.1658 7.7888C14.2858 7.6558 14.4418 7.4618 14.4738 7.2058C14.4924 7.05584 14.4768 6.9036 14.4281 6.76054C14.3794 6.61747 14.299 6.4873 14.1928 6.3798C14.0108 6.1968 13.7688 6.1378 13.5928 6.1058C13.4078 6.0728 13.1698 6.0528 12.8978 6.0288L10.3938 5.8138C10.3323 5.80969 10.2709 5.80369 10.2098 5.7958H10.2068L10.2048 5.7928C10.18 5.73619 10.157 5.67883 10.1358 5.6208L9.20777 3.2308C9.11832 2.98941 9.01958 2.75157 8.91177 2.5178C8.82877 2.3478 8.69577 2.1128 8.45177 1.9888"
        fill="#FFD200" />
</svg>